<svg width="13" height="13" viewBox="0 0 13 13" fill="none" xmlns="http://www.w3.org/2000/svg">
<path d="M1.72685 12.4204C1.36583 12.4204 1.05667 12.2954 0.799365 12.0453C0.542497 11.7948 0.414062 11.4938 0.414062 11.1423V2.19537C0.414062 1.84388 0.542497 1.54288 0.799365 1.29237C1.05667 1.04228 1.36583 0.917236 1.72685 0.917236H10.9163C11.2774 0.917236 11.5865 1.04228 11.8438 1.29237C12.1007 1.54288 12.2291 1.84388 12.2291 2.19537V11.1423C12.2291 11.4938 12.1007 11.7948 11.8438 12.0453C11.5865 12.2954 11.2774 12.4204 10.9163 12.4204H1.72685ZM1.72685 11.1423H10.9163V2.19537H1.72685V11.1423Z" fill="#909090"/>
</svg>
