<svg width="20" height="18" viewBox="0 0 20 18" fill="none" xmlns="http://www.w3.org/2000/svg">
<path d="M8.59377 17.2204L0.34377 9.62169C0.21877 9.50656 0.130019 9.38183 0.0775193 9.24751C0.0250193 9.11319 -0.000813802 8.96927 1.95314e-05 8.81577C1.95314e-05 8.66226 0.0262698 8.51834 0.0787698 8.38402C0.13127 8.2497 0.219603 8.12498 0.34377 8.00985L8.59377 0.411161C8.82294 0.200086 9.1096 0.0899438 9.45377 0.0807333C9.79794 0.0715228 10.0946 0.181665 10.3438 0.411161C10.5938 0.622235 10.7242 0.88627 10.735 1.20327C10.7459 1.52026 10.6259 1.79351 10.375 2.023L4.25002 7.66445H18.2188C18.5729 7.66445 18.87 7.77498 19.11 7.99603C19.35 8.21708 19.4696 8.49033 19.4688 8.81577C19.4688 9.14197 19.3492 9.4156 19.11 9.63665C18.8709 9.85771 18.5738 9.96785 18.2188 9.96708H4.25002L10.375 15.6085C10.6042 15.8196 10.7242 16.0882 10.735 16.4145C10.7459 16.7407 10.6259 17.0093 10.375 17.2204C10.1459 17.4506 9.85419 17.5658 9.50002 17.5658C9.14585 17.5658 8.84377 17.4506 8.59377 17.2204Z" fill="#909090"/>
</svg>
